<svg width="32" height="30" viewBox="0 0 32 30" fill="none" xmlns="http://www.w3.org/2000/svg">
	<g clip-path="url(#clip0_23_1012)">
	<path d="M30.085 0.422539L17.8916 9.53345L20.159 4.16409L30.085 0.422539Z" fill="#E17726" stroke="#E17726" stroke-linecap="round" stroke-linejoin="round"/>
	<path d="M1.95947 0.422539L14.0443 9.61847L11.8855 4.16409L1.95947 0.422539Z" fill="#E27625" stroke="#E27625" stroke-linecap="round" stroke-linejoin="round"/>
	<path d="M25.6949 21.5477L22.4506 26.5526L29.3976 28.4842L31.3876 21.657L25.6949 21.5477Z" fill="#E27625" stroke="#E27625" stroke-linecap="round" stroke-linejoin="round"/>
	<path d="M0.668823 21.657L2.64678 28.4842L9.58173 26.5526L6.34944 21.5477L0.668823 21.657Z" fill="#E27625" stroke="#E27625" stroke-linecap="round" stroke-linejoin="round"/>
	<path d="M9.20792 13.0928L7.2782 16.0326L14.1528 16.3484L13.9237 8.87746L9.20792 13.0928Z" fill="#E27625" stroke="#E27625" stroke-linecap="round" stroke-linejoin="round"/>
	<path d="M22.8365 13.0928L18.0484 8.79241L17.8916 16.3484L24.7662 16.0326L22.8365 13.0928Z" fill="#E27625" stroke="#E27625" stroke-linecap="round" stroke-linejoin="round"/>
	<path d="M9.58179 26.5527L13.7427 24.5239L10.1607 21.7056L9.58179 26.5527Z" fill="#E27625" stroke="#E27625" stroke-linecap="round" stroke-linejoin="round"/>
	<path d="M18.3016 24.5239L22.4505 26.5527L21.8836 21.7056L18.3016 24.5239Z" fill="#E27625" stroke="#E27625" stroke-linecap="round" stroke-linejoin="round"/>
	<path d="M22.4505 26.5527L18.3016 24.524L18.6393 27.2451L18.6032 28.3991L22.4505 26.5527Z" fill="#D5BFB2" stroke="#D5BFB2" stroke-linecap="round" stroke-linejoin="round"/>
	<path d="M9.58167 26.5527L13.4411 28.3991L13.417 27.2451L13.7426 24.524L9.58167 26.5527Z" fill="#D5BFB2" stroke="#D5BFB2" stroke-linecap="round" stroke-linejoin="round"/>
	<path d="M13.5136 19.9077L10.0642 18.8873L12.5005 17.7575L13.5136 19.9077Z" fill="#233447" stroke="#233447" stroke-linecap="round" stroke-linejoin="round"/>
	<path d="M18.5308 19.9077L19.5439 17.7575L21.9922 18.8873L18.5308 19.9077Z" fill="#233447" stroke="#233447" stroke-linecap="round" stroke-linejoin="round"/>
	<path d="M9.58178 26.5527L10.1848 21.5477L6.34949 21.657L9.58178 26.5527Z" fill="#CC6228" stroke="#CC6228" stroke-linecap="round" stroke-linejoin="round"/>
	<path d="M21.8595 21.5477L22.4505 26.5527L25.6948 21.657L21.8595 21.5477Z" fill="#CC6228" stroke="#CC6228" stroke-linecap="round" stroke-linejoin="round"/>
	<path d="M24.7661 16.0326L17.8915 16.3484L18.5307 19.9077L19.5438 17.7576L21.9921 18.8873L24.7661 16.0326Z" fill="#CC6228" stroke="#CC6228" stroke-linecap="round" stroke-linejoin="round"/>
	<path d="M10.0641 18.8873L12.5004 17.7576L13.5135 19.9077L14.1527 16.3484L7.27808 16.0326L10.0641 18.8873Z" fill="#CC6228" stroke="#CC6228" stroke-linecap="round" stroke-linejoin="round"/>
	<path d="M7.2782 16.0326L10.1607 21.7056L10.0642 18.8873L7.2782 16.0326Z" fill="#E27525" stroke="#E27525" stroke-linecap="round" stroke-linejoin="round"/>
	<path d="M21.9922 18.8873L21.8837 21.7056L24.7662 16.0326L21.9922 18.8873Z" fill="#E27525" stroke="#E27525" stroke-linecap="round" stroke-linejoin="round"/>
	<path d="M14.1528 16.3484L13.5135 19.9078L14.3216 24.111L14.5025 18.5715L14.1528 16.3484Z" fill="#E27525" stroke="#E27525" stroke-linecap="round" stroke-linejoin="round"/>
	<path d="M17.8917 16.3484L17.554 18.5594L17.7228 24.111L18.5309 19.9078L17.8917 16.3484Z" fill="#E27525" stroke="#E27525" stroke-linecap="round" stroke-linejoin="round"/>
	<path d="M18.5308 19.9078L17.7228 24.1109L18.3017 24.5239L21.8837 21.7056L21.9923 18.8873L18.5308 19.9078Z" fill="#F5841F" stroke="#F5841F" stroke-linecap="round" stroke-linejoin="round"/>
	<path d="M10.0642 18.8873L10.1607 21.7056L13.7427 24.5239L14.3217 24.1109L13.5136 19.9078L10.0642 18.8873Z" fill="#F5841F" stroke="#F5841F" stroke-linecap="round" stroke-linejoin="round"/>
	<path d="M18.6031 28.3991L18.6393 27.2451L18.3257 26.9778H13.7185L13.417 27.2451L13.4411 28.3991L9.58167 26.5526L10.9325 27.6702L13.6703 29.5775H18.3619L21.1118 27.6702L22.4505 26.5526L18.6031 28.3991Z" fill="#C0AC9D" stroke="#C0AC9D" stroke-linecap="round" stroke-linejoin="round"/>
	<path d="M18.3017 24.5239L17.7228 24.1109H14.3217L13.7428 24.5239L13.4171 27.2451L13.7186 26.9778H18.3258L18.6394 27.2451L18.3017 24.5239Z" fill="#161616" stroke="#161616" stroke-linecap="round" stroke-linejoin="round"/>
	<path d="M30.6036 10.1287L31.6288 5.0995L30.085 0.422539L18.3016 9.22978L22.8365 13.0928L29.2407 14.9757L30.6518 13.3115L30.0367 12.862L31.0137 11.963L30.2659 11.3799L31.2428 10.6268L30.6036 10.1287Z" fill="#763E1A" stroke="#763E1A" stroke-linecap="round" stroke-linejoin="round"/>
	<path d="M0.415527 5.0995L1.45275 10.1287L0.789412 10.6268L1.77839 11.3799L1.03063 11.963L2.00754 12.862L1.39245 13.3115L2.80355 14.9757L9.2078 13.0928L13.7427 9.22978L1.9593 0.422539L0.415527 5.0995Z" fill="#763E1A" stroke="#763E1A" stroke-linecap="round" stroke-linejoin="round"/>
	<path d="M29.2407 14.9757L22.8365 13.0928L24.7662 16.0325L21.8837 21.7056L25.6949 21.657H31.3875L29.2407 14.9757Z" fill="#F5841F" stroke="#F5841F" stroke-linecap="round" stroke-linejoin="round"/>
	<path d="M9.20784 13.0928L2.80357 14.9757L0.668823 21.657H6.34941L10.1606 21.7056L7.27812 16.0325L9.20784 13.0928Z" fill="#F5841F" stroke="#F5841F" stroke-linecap="round" stroke-linejoin="round"/>
	<path d="M17.8916 16.3484L18.3017 9.22977L20.159 4.1641H11.8854L13.7427 9.22977L14.1528 16.3484L14.3096 18.5836L14.3216 24.1109H17.7228L17.7348 18.5836L17.8916 16.3484Z" fill="#F5841F" stroke="#F5841F" stroke-linecap="round" stroke-linejoin="round"/>
	</g>
	<defs>
	<clipPath id="clip0_23_1012">
	<rect width="32" height="30" fill="white"/>
	</clipPath>
	</defs>
	</svg>
	